# xmcd
#
# Track frame offsets: 
#        150
#        12557
#        29822
#        46810
#        63015
#        78212
#        92115
#        110927
#        122935
#        136872
#
# Disc length: 2069 seconds
#
# Revision: 0
# Processed by: cddbd v1.5.2PL0 Copyright (c) Steve Scherf et al.
# Submitted via: ExactAudioCopyFreeDBPlugin 1.0
#
DISCID=8608130a
DTITLE=Jeni Varnadeau - Something Changed
DYEAR=1900
DGENRE=Pop
TTITLE0=I'm Waiting
TTITLE1=Cutting Strings
TTITLE2=Just Like You
TTITLE3=Silly Me
TTITLE4=I Am Winter
TTITLE5=Is This My Address
TTITLE6=Afraid
TTITLE7=Stop Me
TTITLE8=Hammer In My Hand
TTITLE9=Miss You
EXTD=
EXTT0=
EXTT1=
EXTT2=
EXTT3=
EXTT4=
EXTT5=
EXTT6=
EXTT7=
EXTT8=
EXTT9=
PLAYORDER=
